<svg width="21" height="20" viewBox="0 0 21 20" fill="none" xmlns="http://www.w3.org/2000/svg">
  <g id="Logo">
    <path id="Vector" fill-rule="evenodd" clip-rule="evenodd" d="M20.5009 10.0001C20.5009 4.4776 15.9559 0 10.3504 0C4.74495 0 0.200012 4.4776 0.200012 10.0001C0.200012 14.9909 3.91136 19.1282 8.76459 19.8792V12.8914H6.18663V10.0001H8.76459V7.79639C8.76459 5.29038 10.2805 3.90519 12.5986 3.90519C13.7091 3.90519 14.8711 4.10066 14.8711 4.10066V6.56169H13.5907C12.3303 6.56169 11.9363 7.33233 11.9363 8.12404V9.99997H14.7511L14.3015 12.8913H11.9362V19.8791C16.7894 19.1295 20.5008 14.9922 20.5008 9.99997L20.5009 10.0001Z" fill="#1977F3"/>
    <path id="Vector_2" fill-rule="evenodd" clip-rule="evenodd" d="M14.3013 12.8914L14.751 10.0001H11.9361V8.12418C11.9361 7.33385 12.3286 6.56183 13.5905 6.56183H14.8709V4.1008C14.8709 4.1008 13.7091 3.90533 12.5985 3.90533C10.2803 3.90533 8.76442 5.28914 8.76442 7.79653V10.0002H6.18646V12.8915H8.76442V19.8794C9.28112 19.9594 9.8107 20.0002 10.3503 20.0002C10.8898 20.0002 11.4194 19.958 11.9361 19.8794V12.8915H14.3014L14.3013 12.8914Z" fill="#FEFEFE"/>
  </g>
</svg>
